<svg xmlns="http://www.w3.org/2000/svg" viewBox="0 0 64 64" width="64" height="64">
  <defs><radialGradient id="bg" cx="50%" cy="42%" r="75%">
    <stop offset="0" stop-color="#0c242c"/><stop offset="1" stop-color="#08080b"/>
  </radialGradient></defs>
  <rect width="64" height="64" rx="12" fill="url(#bg)"/>
  <path d="M14.4,10.9 14.2,10.9 14.1,10.9 13.9,11.0 13.7,11.0 13.5,11.1 13.3,11.2 13.1,11.3 12.9,11.4 12.7,11.5 12.5,11.6 12.3,11.8 12.2,11.9 12.1,11.8 12.2,11.6 12.3,11.5 12.2,11.5 11.9,11.6 11.5,11.9 11.1,12.5 10.9,13.0 10.9,13.5 10.9,13.9 11.0,14.3 11.1,14.7 11.2,15.1 11.3,15.6 11.5,16.3 11.7,16.9 11.9,17.7 12.1,18.4 12.5,19.2 12.8,20.1 13.2,20.9 13.7,21.7 14.2,22.6 14.8,23.4 15.6,24.1 16.4,24.8 17.2,25.4 18.1,26.0 18.9,26.5 19.8,26.9 20.5,27.4 21.3,27.9 21.9,28.3 22.5,28.7 22.9,29.0 23.2,29.4 23.4,29.7 23.6,30.1 23.8,30.5 24.0,31.0 24.2,31.6 24.4,32.3 24.5,33.0 24.7,33.7 25.0,34.5 25.3,35.3 25.7,36.1 26.2,36.9 26.7,37.7 27.3,38.3 27.9,38.8 28.5,39.2 29.1,39.6 29.7,39.9 30.2,40.2 30.6,40.5 31.0,40.7 31.2,40.8 31.4,40.9 31.5,41.0 31.7,41.1 31.8,41.3 31.9,41.4 32.1,41.5 32.1,41.6 32.2,41.7 32.3,41.7 32.4,41.8 32.4,41.9 32.5,42.0 32.6,42.2 32.8,42.4 33.1,42.8 33.6,43.3 34.0,43.7 34.2,43.8 34.0,43.6 33.5,43.0 33.2,42.2 33.2,41.8 33.2,41.7 33.2,41.8 33.2,42.1 33.2,42.5 33.1,43.0 33.0,43.7 32.9,44.6 32.7,45.5 32.4,46.6 32.2,47.6 32.0,48.7 31.8,49.8 31.6,50.8 31.4,51.7 31.3,52.5 31.2,53.2 31.2,53.8 31.2,54.3 31.2,54.8 31.3,55.2 31.4,55.6 31.6,56.0 31.9,56.4 32.1,56.5 32.3,56.6 32.4,56.6 32.4,56.5 32.5,56.6 32.7,56.7 32.9,56.9 33.1,57.1 33.3,57.3 33.5,57.4 33.7,57.5 33.9,57.6 34.1,57.6 34.3,57.7 34.4,57.7 34.6,57.7 34.7,57.7 35.1,57.3 35.1,57.2 35.1,57.0 35.0,56.8 35.0,56.7 34.9,56.5 34.9,56.3 34.8,56.2 34.8,56.0 34.7,55.8 34.7,55.7 34.7,55.6 34.7,55.4 34.6,55.2 34.5,54.9 34.4,54.7 34.4,54.6 34.5,54.6 34.6,54.7 34.7,54.8 34.8,54.8 34.9,54.8 34.9,54.6 35.0,54.3 35.1,53.9 35.3,53.3 35.5,52.6 35.7,51.8 36.0,50.8 36.3,49.8 36.7,48.8 37.0,47.7 37.3,46.7 37.6,45.7 37.8,44.9 38.1,44.1 38.3,43.4 38.4,42.9 38.5,42.4 38.6,42.0 38.6,41.5 38.5,40.8 38.1,39.9 37.5,39.2 37.2,38.9 37.3,38.9 37.5,39.1 37.8,39.4 38.0,39.6 37.9,39.5 37.8,39.2 37.7,39.0 37.6,38.7 37.4,38.4 37.3,38.1 37.1,37.8 36.8,37.5 36.6,37.2 36.3,36.9 36.0,36.6 35.6,36.2 35.1,35.8 34.6,35.4 34.1,35.2 33.7,34.9 33.2,34.7 32.8,34.4 32.5,34.2 32.2,34.0 31.9,33.8 31.7,33.6 31.5,33.4 31.3,33.3 31.2,33.1 31.0,32.8 30.9,32.4 30.7,31.9 30.5,31.2 30.3,30.5 30.0,29.7 29.7,28.9 29.3,28.1 28.9,27.2 28.3,26.3 27.6,25.4 26.8,24.7 25.9,24.0 25.0,23.4 24.1,22.9 23.2,22.5 22.4,22.0 21.5,21.6 20.8,21.2 20.1,20.9 19.4,20.5 18.9,20.2 18.5,19.9 18.2,19.5 17.8,19.0 17.4,18.5 17.1,17.9 16.7,17.3 16.4,16.7 16.1,16.0 15.8,15.4 15.5,14.8 15.3,14.3 15.0,13.8 14.8,13.3 14.7,13.1 14.6,12.9 14.5,13.0 14.5,13.1 14.3,13.5 14.0,13.9 13.7,14.2 13.6,14.2 13.7,14.1 13.9,13.9 14.1,13.5 14.2,13.3 14.3,13.1 14.3,13.0 14.3,12.9 14.3,12.7 14.4,12.5 14.5,12.3 14.5,12.2 14.6,12.0 14.7,11.8 14.7,11.6 14.8,11.5 14.8,11.3Z" fill="#de28cb" stroke="#0a0a0d" stroke-width="0.5"/>
  <path d="M13.1,12.4 13.0,12.5 12.9,12.4 12.8,12.5 12.7,12.5 12.5,12.6 12.4,12.8 12.2,13.0 12.1,13.3 12.0,13.6 12.0,14.0 12.1,14.3 12.2,14.8 12.3,15.2 12.4,15.7 12.5,16.3 12.7,16.9 12.9,17.6 13.2,18.3 13.5,19.0 13.8,19.7 14.1,20.5 14.6,21.2 15.0,21.9 15.6,22.6 16.2,23.2 16.9,23.9 17.7,24.5 18.5,25.0 19.3,25.6 20.1,26.1 20.9,26.6 21.7,27.1 22.4,27.5 23.0,27.9 23.5,28.3 23.9,28.6 24.2,28.8 24.4,29.0 24.5,29.2 24.5,29.2 24.4,29.1 24.2,28.9 24.1,28.7 24.1,28.8 24.1,28.9 24.2,29.3 24.3,29.6 24.5,29.9 24.6,30.2 24.7,30.5 24.8,30.9 25.0,31.4 25.1,31.9 25.3,32.4 25.5,33.0 25.7,33.6 26.0,34.2 26.3,34.9 26.7,35.5 27.2,36.1 27.8,36.6 28.4,37.1 29.0,37.4 29.6,37.7 30.1,37.9 30.7,38.1 31.1,38.3 31.6,38.4 31.9,38.5 32.2,38.6 32.3,38.7 32.5,38.8 32.6,38.9 32.8,39.1 32.9,39.2 33.1,39.4 33.3,39.5 33.4,39.7 33.5,39.9 33.7,40.1 33.8,40.3 33.9,40.5 34.0,40.7 34.2,40.9 34.3,41.2 34.4,41.4 34.5,41.5 34.6,41.7 34.6,41.8 34.7,41.9 34.7,42.0 34.8,42.1 34.8,42.3 34.8,42.4 34.9,42.6 34.9,42.8 34.8,43.1 34.8,43.4 34.7,43.7 34.6,44.1 34.5,44.6 34.3,45.1 34.1,45.6 34.0,46.1 33.8,46.7 33.6,47.3 33.5,47.9 33.4,48.5 33.3,49.0 33.3,49.6 33.2,50.1 33.2,50.7 33.1,51.3 33.1,51.9 33.1,52.4 33.1,53.0 33.1,53.6 33.2,54.1 33.2,54.6 33.4,55.1 33.5,55.5 33.7,55.9 33.9,56.3 34.1,56.6 34.4,56.9 34.7,57.1 35.0,57.3 35.3,57.5 35.6,57.6 35.9,57.7 36.2,57.8 36.5,57.8 36.8,57.9 37.2,58.0 37.6,58.0 38.0,58.0 38.5,58.0 38.9,58.0 39.3,58.0 39.7,58.0 40.0,57.9 40.3,57.9 40.6,57.8 40.8,57.7 40.8,57.3 40.6,57.2 40.4,57.1 40.1,57.0 39.7,56.9 39.4,56.9 39.0,56.8 38.6,56.7 38.3,56.6 37.9,56.4 37.6,56.3 37.4,56.2 37.2,56.1 37.0,55.9 36.9,55.8 36.7,55.6 36.6,55.5 36.5,55.4 36.4,55.3 36.4,55.2 36.4,55.1 36.4,55.0 36.4,54.9 36.4,54.7 36.4,54.5 36.4,54.3 36.4,54.0 36.4,53.6 36.5,53.2 36.5,52.7 36.6,52.2 36.7,51.7 36.8,51.2 36.9,50.7 37.0,50.2 37.2,49.7 37.3,49.3 37.4,48.9 37.5,48.5 37.7,48.0 37.9,47.6 38.1,47.1 38.3,46.6 38.6,46.1 38.8,45.6 39.0,45.1 39.2,44.6 39.3,44.0 39.4,43.4 39.5,42.9 39.5,42.5 39.6,42.0 39.5,41.5 39.5,41.1 39.4,40.7 39.3,40.3 39.2,39.9 39.1,39.6 38.9,39.3 38.8,39.0 38.7,38.7 38.5,38.4 38.4,38.0 38.2,37.7 38.0,37.3 37.7,37.0 37.5,36.6 37.2,36.3 36.9,35.9 36.6,35.6 36.3,35.2 35.9,34.9 35.4,34.6 34.9,34.2 34.3,33.9 33.8,33.7 33.2,33.5 32.8,33.4 32.3,33.2 31.9,33.1 31.6,33.0 31.3,32.8 31.1,32.7 30.9,32.7 30.8,32.6 30.7,32.5 30.6,32.3 30.4,32.0 30.2,31.6 30.0,31.2 29.9,30.8 29.7,30.3 29.5,29.8 29.3,29.3 29.1,28.8 28.9,28.3 28.6,27.9 28.5,27.7 28.4,27.6 28.4,27.6 28.4,27.5 28.3,27.3 28.1,27.0 27.8,26.6 27.5,26.3 27.2,26.0 26.9,25.8 26.6,25.6 26.2,25.3 25.6,25.0 25.0,24.6 24.2,24.3 23.5,23.9 22.7,23.5 21.9,23.0 21.0,22.6 20.3,22.2 19.5,21.7 18.8,21.3 18.2,20.9 17.8,20.5 17.3,20.1 16.9,19.6 16.5,19.0 16.2,18.5 15.8,17.9 15.5,17.3 15.2,16.7 14.9,16.1 14.6,15.5 14.4,15.0 14.2,14.5 14.0,14.1 13.8,13.8 13.7,13.6 13.6,13.5 13.6,13.4 13.5,13.3 13.5,13.3 13.5,13.2 13.5,13.1 13.5,13.0 13.5,12.9 13.5,12.7 13.5,12.6Z" fill="#4d59ff" stroke="#0a0a0d" stroke-width="0.5"/>
  <path d="M16.7,8.8 16.5,8.9 16.2,9.0 15.8,9.3 15.5,9.5 15.1,9.8 14.6,10.1 14.2,10.4 13.8,10.7 13.4,11.0 13.1,11.3 12.8,11.5 12.5,11.7 12.4,11.8 12.3,11.8 12.3,11.7 12.3,11.7 12.1,11.7 11.7,12.0 11.2,12.8 11.2,13.4 11.2,13.7 11.3,13.9 11.3,14.2 11.4,14.5 11.5,14.9 11.6,15.5 11.8,16.1 12.0,16.8 12.2,17.5 12.5,18.3 12.8,19.1 13.2,19.9 13.6,20.7 14.0,21.5 14.6,22.3 15.1,23.0 15.8,23.7 16.5,24.4 17.3,24.9 18.1,25.4 18.9,25.9 19.7,26.4 20.4,26.8 21.1,27.2 21.8,27.6 22.4,27.9 22.8,28.2 23.2,28.5 23.5,28.8 23.7,29.1 23.9,29.4 24.1,29.7 24.4,30.0 24.6,30.4 24.8,30.9 25.1,31.3 25.5,31.8 26.0,32.4 26.5,32.9 27.2,33.4 27.8,33.8 28.5,34.2 29.2,34.4 29.9,34.7 30.5,34.8 31.1,35.0 31.6,35.2 32.1,35.3 32.5,35.4 32.9,35.6 33.2,35.7 33.4,35.8 33.6,36.0 33.9,36.2 34.2,36.4 34.5,36.6 34.8,36.9 35.1,37.2 35.4,37.5 35.7,37.8 36.0,38.0 36.2,38.3 36.5,38.6 36.7,38.8 37.0,39.0 37.1,39.2 37.2,39.3 37.3,39.3 37.2,39.3 37.2,39.2 37.1,39.0 37.1,39.0 37.1,39.0 37.2,39.2 37.3,39.4 37.4,39.7 37.5,40.1 37.7,40.5 37.8,41.0 38.0,41.5 38.2,42.1 38.3,42.6 38.5,43.2 38.6,43.7 38.7,44.2 38.8,44.6 38.9,45.0 38.9,45.2 39.0,45.4 39.0,45.4 39.0,45.5 39.0,45.5 39.0,45.7 38.9,45.8 38.9,46.0 38.8,46.3 38.6,46.6 38.5,47.0 38.3,47.5 38.2,47.9 38.2,48.3 38.2,48.7 38.2,49.0 38.2,49.4 38.2,49.7 38.3,50.0 38.3,50.3 38.4,50.6 38.4,50.9 38.5,51.2 38.6,51.5 38.7,51.7 38.8,51.9 38.8,52.1 38.9,52.2 39.1,52.5 39.2,52.7 39.5,53.0 39.7,53.1 39.9,53.3 40.1,53.3 40.3,53.4 40.5,53.4 40.8,53.5 41.1,53.6 41.5,53.7 41.8,53.8 42.3,54.0 42.7,54.1 43.2,54.2 43.6,54.3 44.0,54.4 44.4,54.5 44.8,54.6 45.1,54.6 45.3,54.6 45.5,54.1 45.4,53.9 45.1,53.7 44.8,53.5 44.5,53.3 44.1,53.1 43.7,52.8 43.3,52.6 43.0,52.4 42.6,52.1 42.3,51.9 42.1,51.7 41.9,51.6 41.7,51.4 41.6,51.3 41.6,51.2 41.6,51.1 41.6,51.1 41.7,51.1 41.9,51.2 42.0,51.3 42.0,51.4 42.1,51.3 42.1,51.2 42.1,51.1 42.2,51.0 42.2,50.8 42.2,50.7 42.3,50.5 42.3,50.3 42.3,50.1 42.4,49.9 42.5,49.7 42.5,49.5 42.6,49.2 42.7,49.1 42.7,48.9 42.8,48.9 42.8,48.9 42.9,48.8 43.0,48.7 43.2,48.5 43.3,48.2 43.6,47.9 43.8,47.5 44.0,47.0 44.2,46.4 44.3,45.8 44.3,45.1 44.3,44.5 44.3,43.9 44.2,43.3 44.1,42.6 44.0,42.0 43.9,41.3 43.7,40.7 43.6,40.0 43.5,39.5 43.3,38.9 43.2,38.4 43.1,38.0 43.0,37.7 42.9,37.4 42.9,37.1 42.8,36.8 42.6,36.4 42.5,36.1 42.3,35.7 42.0,35.4 41.8,35.2 41.7,35.0 41.5,34.8 41.3,34.6 41.1,34.3 40.8,34.0 40.5,33.7 40.2,33.3 39.8,33.0 39.4,32.6 39.0,32.2 38.5,31.8 38.1,31.4 37.6,31.1 37.0,30.7 36.4,30.3 35.7,30.0 35.1,29.7 34.4,29.5 33.8,29.4 33.2,29.2 32.6,29.1 32.1,28.9 31.6,28.8 31.2,28.7 30.9,28.6 30.6,28.5 30.4,28.4 30.3,28.3 30.2,28.2 30.0,28.1 29.8,27.9 29.6,27.6 29.3,27.2 29.0,26.8 28.7,26.4 28.2,25.9 27.7,25.3 27.2,24.8 26.5,24.3 25.8,23.8 25.0,23.4 24.3,23.0 23.5,22.6 22.7,22.2 22.0,21.9 21.2,21.6 20.5,21.2 19.9,20.9 19.3,20.5 18.9,20.2 18.5,19.9 18.1,19.5 17.7,19.1 17.3,18.5 17.0,17.9 16.6,17.3 16.3,16.6 15.9,16.0 15.6,15.4 15.4,14.8 15.1,14.2 14.9,13.7 14.7,13.3 14.5,13.0 14.4,12.7 14.3,12.6 14.2,12.7 14.2,13.2 13.8,13.9 13.4,14.1 13.4,14.1 13.6,13.9 13.8,13.7 14.0,13.5 14.2,13.2 14.3,12.9 14.5,12.6 14.7,12.3 15.0,11.9 15.3,11.5 15.6,11.1 16.0,10.8 16.3,10.4 16.5,10.0 16.8,9.7 17.0,9.4 17.1,9.1Z" fill="#1ddbe1" stroke="#0a0a0d" stroke-width="0.5"/>
  <path d="M18.8,6.6 18.5,6.9 18.0,7.2 17.5,7.6 17.0,8.1 16.4,8.6 15.8,9.1 15.2,9.7 14.6,10.2 14.0,10.7 13.5,11.2 13.1,11.6 12.7,12.0 12.4,12.3 12.2,12.5 12.0,12.8 11.8,13.2 11.7,13.7 11.8,14.2 12.0,14.6 12.1,14.9 12.1,14.9 12.0,14.9 11.8,14.7 11.7,14.6 11.7,14.6 11.6,14.7 11.6,14.9 11.6,15.1 11.6,15.3 11.7,15.5 11.7,15.8 11.8,16.1 11.9,16.3 12.0,16.6 12.1,16.9 12.3,17.2 12.4,17.5 12.6,17.8 12.7,18.2 13.0,18.7 13.2,19.2 13.5,19.8 13.8,20.4 14.2,20.9 14.6,21.6 15.1,22.2 15.7,22.8 16.3,23.3 16.9,23.9 17.6,24.4 18.4,24.8 19.1,25.3 19.8,25.7 20.6,26.1 21.3,26.4 22.0,26.8 22.7,27.2 23.3,27.5 23.8,27.8 24.2,28.1 24.6,28.3 25.0,28.6 25.3,28.9 25.6,29.2 25.9,29.5 26.2,29.8 26.6,30.1 27.0,30.5 27.4,30.9 27.9,31.2 28.4,31.6 29.1,32.0 29.7,32.3 30.4,32.6 31.1,32.8 31.7,33.0 32.3,33.1 32.8,33.3 33.3,33.4 33.8,33.5 34.2,33.6 34.5,33.7 34.8,33.9 35.0,34.0 35.2,34.1 35.5,34.4 35.9,34.7 36.2,35.0 36.5,35.3 36.9,35.7 37.2,36.1 37.6,36.5 37.9,36.9 38.2,37.2 38.5,37.6 38.8,37.9 39.1,38.3 39.3,38.5 39.5,38.7 39.7,38.8 39.8,38.9 39.8,39.0 39.9,39.1 40.0,39.1 40.0,39.2 40.1,39.4 40.2,39.6 40.3,39.9 40.5,40.2 40.6,40.6 40.7,41.1 40.8,41.6 40.9,42.2 41.0,42.7 41.1,43.3 41.2,43.9 41.2,44.4 41.3,44.9 41.3,45.3 41.4,45.6 41.4,45.9 41.4,46.1 41.3,46.4 41.3,46.6 41.2,46.9 41.1,47.2 41.0,47.5 40.9,47.8 40.7,48.1 40.6,48.4 40.5,48.8 40.4,49.1 40.4,49.5 40.4,49.8 40.5,50.0 40.5,50.3 40.6,50.5 40.7,50.7 40.7,50.9 40.8,51.1 40.9,51.2 41.0,51.3 41.1,51.4 41.2,51.4 41.7,51.4 41.8,51.3 41.9,51.2 42.0,51.1 42.0,50.9 42.1,50.8 42.1,50.6 42.2,50.5 42.3,50.3 42.3,50.2 42.4,50.1 42.5,49.9 42.6,49.8 42.7,49.7 42.8,49.6 43.0,49.4 43.2,49.2 43.4,49.0 43.6,48.7 43.9,48.4 44.1,48.0 44.4,47.6 44.6,47.1 44.8,46.6 44.9,46.0 45.0,45.5 45.1,44.9 45.1,44.3 45.1,43.7 45.2,43.0 45.1,42.4 45.1,41.7 45.1,41.1 45.0,40.5 45.0,39.9 44.9,39.4 44.9,38.9 44.8,38.4 44.7,38.0 44.6,37.6 44.5,37.2 44.4,36.8 44.2,36.4 44.0,36.1 43.9,35.8 43.7,35.5 43.5,35.2 43.3,35.0 43.1,34.6 42.9,34.3 42.6,33.9 42.3,33.5 42.0,33.0 41.6,32.5 41.2,32.0 40.8,31.5 40.4,31.0 39.9,30.5 39.4,30.0 38.8,29.5 38.2,29.0 37.5,28.6 36.9,28.3 36.2,28.0 35.5,27.8 34.9,27.6 34.3,27.4 33.8,27.3 33.3,27.1 32.9,27.0 32.5,26.9 32.2,26.8 31.9,26.6 31.7,26.5 31.5,26.3 31.2,26.2 31.0,25.9 30.7,25.7 30.4,25.4 30.0,25.1 29.6,24.7 29.1,24.3 28.6,23.9 28.1,23.5 27.4,23.1 26.8,22.7 26.1,22.3 25.3,22.0 24.6,21.6 23.8,21.3 23.1,20.9 22.4,20.6 21.7,20.3 21.1,20.0 20.6,19.7 20.1,19.4 19.7,19.1 19.4,18.9 19.1,18.6 18.7,18.3 18.4,17.9 18.1,17.5 17.8,17.1 17.5,16.7 17.3,16.3 17.0,15.9 16.7,15.5 16.5,15.1 16.2,14.7 16.0,14.5 15.9,14.3 15.7,14.2 15.7,14.1 15.6,14.1 15.5,14.1 15.5,14.1 15.5,14.1 15.4,14.1 15.4,14.1 15.3,13.9 15.2,13.7 15.0,13.3 14.8,13.0 14.5,12.8 14.4,12.7 14.4,12.8 14.5,13.1 14.5,13.5 14.5,13.8 14.4,13.8 14.3,13.8 14.4,13.6 14.5,13.3 14.7,13.0 15.0,12.5 15.4,12.0 15.8,11.4 16.3,10.8 16.8,10.1 17.3,9.5 17.8,8.9 18.3,8.3 18.7,7.8 19.0,7.3 19.2,7.0Z" fill="#89ff5d" stroke="#0a0a0d" stroke-width="0.5"/>
  <path d="M16.4,9.0 16.1,9.0 15.9,9.2 15.6,9.4 15.2,9.6 14.8,9.8 14.5,10.1 14.1,10.3 13.7,10.6 13.3,10.8 13.0,11.1 12.7,11.4 12.4,11.6 12.3,11.7 12.2,11.7 12.1,11.7 11.9,11.8 11.7,11.9 11.4,12.2 11.1,12.7 11.0,13.2 11.0,13.6 11.1,14.0 11.1,14.3 11.2,14.7 11.3,15.2 11.5,15.8 11.6,16.4 11.9,17.1 12.1,17.9 12.4,18.6 12.7,19.4 13.1,20.2 13.5,21.0 13.9,21.8 14.3,22.5 14.8,23.2 15.4,23.9 16.1,24.5 16.7,25.0 17.4,25.5 18.1,26.0 18.7,26.4 19.3,26.7 19.9,27.1 20.4,27.4 20.9,27.7 21.2,28.0 21.5,28.2 21.8,28.5 22.1,28.8 22.4,29.0 22.6,29.2 22.8,29.4 22.9,29.5 23.0,29.6 23.0,29.7 23.1,29.9 23.2,30.0 23.2,30.2 23.3,30.5 23.4,30.7 23.4,31.0 23.4,31.4 23.4,31.8 23.3,32.4 23.3,33.0 23.3,33.6 23.2,34.3 23.2,35.0 23.2,35.7 23.3,36.5 23.4,37.2 23.6,38.0 23.9,38.7 24.2,39.3 24.5,39.9 24.9,40.4 25.2,40.9 25.5,41.3 25.7,41.7 26.0,42.1 26.2,42.4 26.3,42.7 26.4,43.0 26.4,43.2 26.5,43.4 26.5,43.6 26.5,43.9 26.4,44.3 26.3,44.6 26.2,45.1 26.1,45.6 26.0,46.1 25.9,46.7 25.9,47.4 25.9,48.1 26.0,48.8 26.2,49.6 26.3,50.5 26.5,51.3 26.7,52.3 27.0,53.2 27.2,54.1 27.4,54.9 27.6,55.7 27.8,56.4 28.0,57.0 28.2,57.4 28.6,57.4 28.6,56.9 28.6,56.3 28.6,55.6 28.5,54.7 28.5,53.9 28.4,53.0 28.3,52.0 28.2,51.1 28.2,50.2 28.2,49.4 28.2,48.7 28.2,48.0 28.3,47.6 28.4,47.1 28.5,46.8 28.7,46.4 28.9,46.1 29.1,45.7 29.3,45.3 29.5,44.9 29.7,44.4 29.8,43.8 29.9,43.2 29.9,42.5 29.8,41.8 29.7,41.1 29.5,40.5 29.2,39.9 29.0,39.4 28.7,38.9 28.5,38.4 28.3,37.9 28.1,37.5 28.0,37.1 27.9,36.7 27.8,36.4 27.8,36.1 27.8,35.7 27.8,35.2 27.9,34.6 28.0,34.1 28.1,33.5 28.1,32.9 28.2,32.2 28.3,31.5 28.3,30.8 28.3,30.1 28.1,29.4 28.0,28.8 27.8,28.3 27.6,27.8 27.4,27.3 27.1,26.8 26.8,26.4 26.5,26.0 26.2,25.7 25.8,25.4 25.5,25.1 25.1,24.8 24.7,24.4 24.2,24.0 23.6,23.6 22.9,23.2 22.3,22.9 21.7,22.6 21.1,22.2 20.5,21.9 20.0,21.6 19.4,21.3 19.0,21.0 18.6,20.6 18.3,20.3 17.9,20.0 17.6,19.5 17.2,18.9 16.8,18.3 16.5,17.7 16.1,17.0 15.8,16.3 15.5,15.7 15.2,15.1 15.0,14.5 14.8,14.0 14.6,13.6 14.4,13.3 14.3,13.1 14.3,13.0 14.2,13.1 14.1,13.4 14.0,13.7 13.8,13.8 13.7,13.8 13.8,13.7 13.9,13.5 14.1,13.2 14.2,13.0 14.3,12.7 14.5,12.5 14.7,12.1 14.9,11.8 15.2,11.5 15.4,11.1 15.7,10.7 16.0,10.4 16.2,10.1 16.4,9.8 16.6,9.5 16.7,9.3Z" fill="#ffee18" stroke="#0a0a0d" stroke-width="0.5"/>
</svg>
